<svg width="41" height="40" viewBox="0 0 41 40" fill="none" xmlns="http://www.w3.org/2000/svg">
<path d="M10.4986 20H4.91113" stroke="white" stroke-width="1.96618" stroke-linecap="round" stroke-linejoin="round"/>
<path d="M36.3332 20H17.7065" stroke="white" stroke-width="1.96618" stroke-linecap="round" stroke-linejoin="round"/>
<path d="M23.5392 31.873H4.91113" stroke="white" stroke-width="1.96618" stroke-linecap="round" stroke-linejoin="round"/>
<path d="M36.3253 31.873H30.7393" stroke="white" stroke-width="1.96618" stroke-linecap="round" stroke-linejoin="round"/>
<path d="M23.5392 8.33105H4.91113" stroke="white" stroke-width="1.96618" stroke-linecap="round" stroke-linejoin="round"/>
<path d="M36.3253 8.33105H30.7393" stroke="white" stroke-width="1.96618" stroke-linecap="round" stroke-linejoin="round"/>
<path d="M10.4888 20.0026C10.4888 20.4758 10.582 20.9443 10.763 21.3815C10.9441 21.8187 11.2095 22.2159 11.5441 22.5505C11.8787 22.8851 12.2759 23.1505 12.7131 23.3315C13.1502 23.5126 13.6188 23.6058 14.092 23.6058C14.5652 23.6058 15.0337 23.5126 15.4709 23.3315C15.908 23.1505 16.3052 22.8851 16.6398 22.5505C16.9744 22.2159 17.2398 21.8187 17.4209 21.3815C17.602 20.9443 17.6952 20.4758 17.6952 20.0026C17.6952 19.5294 17.602 19.0609 17.4209 18.6237C17.2398 18.1866 16.9744 17.7894 16.6398 17.4548C16.3052 17.1202 15.908 16.8548 15.4709 16.6737C15.0337 16.4926 14.5652 16.3994 14.092 16.3994C13.6188 16.3994 13.1502 16.4926 12.7131 16.6737C12.2759 16.8548 11.8787 17.1202 11.5441 17.4548C11.2095 17.7894 10.9441 18.1866 10.763 18.6237C10.582 19.0609 10.4888 19.5294 10.4888 20.0026Z" stroke="url(#paint0_linear_58_3390)" stroke-width="1.96618"/>
<path d="M23.5303 31.8757C23.5303 32.8313 23.9099 33.7478 24.5856 34.4235C25.2614 35.0992 26.1779 35.4789 27.1335 35.4789C28.0891 35.4789 29.0056 35.0992 29.6813 34.4235C30.3571 33.7478 30.7367 32.8313 30.7367 31.8757C30.7367 30.92 30.3571 30.0035 29.6813 29.3278C29.0056 28.6521 28.0891 28.2725 27.1335 28.2725C26.1779 28.2725 25.2614 28.6521 24.5856 29.3278C23.9099 30.0035 23.5303 30.92 23.5303 31.8757Z" stroke="url(#paint1_linear_58_3390)" stroke-width="1.96618"/>
<path d="M23.5303 8.13348C23.5303 9.08911 23.9099 10.0056 24.5856 10.6813C25.2614 11.3571 26.1779 11.7367 27.1335 11.7367C28.0891 11.7367 29.0056 11.3571 29.6813 10.6813C30.3571 10.0056 30.7367 9.08911 30.7367 8.13348C30.7367 7.17785 30.3571 6.26136 29.6813 5.58563C29.0056 4.9099 28.0891 4.53027 27.1335 4.53027C26.1779 4.53027 25.2614 4.9099 24.5856 5.58563C23.9099 6.26136 23.5303 7.17785 23.5303 8.13348Z" stroke="url(#paint2_linear_58_3390)" stroke-width="1.96618"/>
<defs>
<linearGradient id="paint0_linear_58_3390" x1="10.5688" y1="23.4257" x2="17.6163" y2="23.4257" gradientUnits="userSpaceOnUse">
<stop stop-color="#209F96"/>
<stop offset="1" stop-color="#2EE1D5"/>
</linearGradient>
<linearGradient id="paint1_linear_58_3390" x1="23.6103" y1="35.2988" x2="30.6578" y2="35.2988" gradientUnits="userSpaceOnUse">
<stop stop-color="#209F96"/>
<stop offset="1" stop-color="#2EE1D5"/>
</linearGradient>
<linearGradient id="paint2_linear_58_3390" x1="23.6103" y1="11.5566" x2="30.6578" y2="11.5566" gradientUnits="userSpaceOnUse">
<stop stop-color="#209F96"/>
<stop offset="1" stop-color="#2EE1D5"/>
</linearGradient>
</defs>
</svg>
