<svg width="33" height="32" viewBox="0 0 33 32" fill="none" xmlns="http://www.w3.org/2000/svg">
<g clip-path="url(#clip0_58_1820)">
<path d="M9.21634 14.5841C9.26586 14.4638 9.28276 14.3325 9.26536 14.2035C9.24796 14.0746 9.19685 13.9525 9.1172 13.8496C9.03756 13.7467 8.93218 13.6666 8.81171 13.6174C8.69123 13.5682 8.55992 13.5517 8.431 13.5694L2.29767 14.4321C2.17019 14.4497 2.04953 14.5003 1.94769 14.579C1.84585 14.6577 1.76638 14.7616 1.71717 14.8806C1.66796 14.9995 1.65073 15.1292 1.66719 15.2568C1.68365 15.3845 1.73323 15.5056 1.811 15.6081L5.53367 20.5508C5.61228 20.6546 5.71689 20.7358 5.83695 20.7863C5.95701 20.8368 6.08826 20.8546 6.21744 20.8381C6.34662 20.8216 6.46916 20.7713 6.57268 20.6923C6.67619 20.6133 6.75703 20.5084 6.807 20.3881L8.007 17.4868L9.21634 14.5841Z" stroke="white" stroke-width="2" stroke-linecap="round" stroke-linejoin="round"/>
<path d="M7.83838 17.9111C13.3704 19.6445 16.665 22.9778 16.665 29.2698V31.0031" stroke="white" stroke-width="2" stroke-linecap="round" stroke-linejoin="round"/>
<path d="M24.1182 14.5841C24.0687 14.4638 24.0517 14.3325 24.0691 14.2035C24.0866 14.0746 24.1377 13.9525 24.2173 13.8496C24.297 13.7467 24.4023 13.6666 24.5228 13.6174C24.6433 13.5682 24.7746 13.5517 24.9035 13.5694L31.0368 14.4321C31.1643 14.4497 31.285 14.5003 31.3868 14.579C31.4887 14.6577 31.5681 14.7616 31.6173 14.8806C31.6665 14.9995 31.6838 15.1292 31.6673 15.2568C31.6509 15.3845 31.6013 15.5056 31.5235 15.6081L27.8008 20.5508C27.7222 20.6546 27.6176 20.7358 27.4976 20.7863C27.3775 20.8368 27.2463 20.8546 27.1171 20.8381C26.9879 20.8216 26.8653 20.7713 26.7618 20.6923C26.6583 20.6133 26.5775 20.5084 26.5275 20.3881L25.3275 17.4868L24.1182 14.5841Z" stroke="white" stroke-width="2" stroke-linecap="round" stroke-linejoin="round"/>
<path d="M25.4932 17.9111C19.9612 19.6445 16.6665 22.9778 16.6665 29.2698V31.0031" stroke="white" stroke-width="2" stroke-linecap="round" stroke-linejoin="round"/>
<path d="M13.4283 8.4511L13.4278 9.4511H13.4283V8.4511ZM12.7722 7.27227L13.639 7.77094C13.6422 7.76535 13.6454 7.75973 13.6485 7.75407L12.7722 7.27227ZM16.0099 1.38378L15.1436 0.884242C15.1402 0.890121 15.1368 0.896034 15.1336 0.901981L16.0099 1.38378ZM17.322 1.38378L18.1981 0.901734C18.1949 0.895871 18.1916 0.890039 18.1883 0.884242L17.322 1.38378ZM20.561 7.27086L19.6848 7.75291C19.6877 7.75817 19.6907 7.76341 19.6937 7.76862L20.561 7.27086ZM19.9035 8.4511V9.4511L19.9044 9.4511L19.9035 8.4511ZM17.6668 8.45382C17.6668 7.90153 17.2191 7.45382 16.6668 7.45382C16.1145 7.45382 15.6668 7.90153 15.6668 8.45382H17.6668ZM15.6668 31C15.6668 31.5523 16.1145 32 16.6668 32C17.2191 32 17.6668 31.5523 17.6668 31H15.6668ZM13.4288 7.4511C13.4757 7.45113 13.5202 7.46395 13.5577 7.48624L12.5339 9.20438C12.8037 9.36512 13.1122 9.45094 13.4278 9.4511L13.4288 7.4511ZM13.5577 7.48624C13.5949 7.50841 13.6226 7.53837 13.6405 7.57061L11.8929 8.54321C12.0441 8.81481 12.2644 9.04376 12.5339 9.20438L13.5577 7.48624ZM13.6405 7.57061C13.6584 7.60269 13.6667 7.63718 13.6665 7.67085L11.6665 7.65682C11.6644 7.96608 11.7419 8.27178 11.8929 8.54321L13.6405 7.57061ZM13.6665 7.67085C13.6663 7.70453 13.6574 7.73898 13.639 7.77094L11.9054 6.77361C11.7505 7.04293 11.6687 7.34755 11.6665 7.65682L13.6665 7.67085ZM13.6485 7.75407L16.8861 1.86558L15.1336 0.901981L11.896 6.79048L13.6485 7.75407ZM16.8761 1.88332C16.8579 1.91497 16.8301 1.94425 16.7932 1.96585L15.7834 0.239526C15.5163 0.395723 15.2966 0.618766 15.1436 0.884242L16.8761 1.88332ZM16.7932 1.96585C16.7561 1.98757 16.7121 2 16.6659 2V0C16.3548 0 16.0506 0.0832174 15.7834 0.239526L16.7932 1.96585ZM16.6659 2C16.6197 2 16.5758 1.98757 16.5387 1.96585L17.5485 0.239526C17.2813 0.0832174 16.977 0 16.6659 0V2ZM16.5387 1.96585C16.5017 1.94425 16.474 1.91497 16.4557 1.88332L18.1883 0.884242C18.0352 0.618766 17.8155 0.395723 17.5485 0.239526L16.5387 1.96585ZM16.4458 1.86582L19.6848 7.75291L21.4371 6.78882L18.1981 0.901734L16.4458 1.86582ZM19.6937 7.76862C19.6755 7.73688 19.6667 7.70269 19.6665 7.66929L21.6665 7.65667C21.6645 7.34736 21.583 7.04263 21.4283 6.7731L19.6937 7.76862ZM19.6665 7.66929C19.6663 7.63588 19.6746 7.60167 19.6923 7.56983L21.4396 8.5431C21.5907 8.27168 21.6684 7.96598 21.6665 7.65667L19.6665 7.66929ZM19.6923 7.56983C19.7102 7.53783 19.7377 7.50807 19.7747 7.48605L20.7983 9.20423C21.0679 9.0436 21.2883 8.81467 21.4396 8.5431L19.6923 7.56983ZM19.7747 7.48605C19.8119 7.4639 19.8561 7.45114 19.9027 7.4511L19.9044 9.4511C20.22 9.45084 20.5285 9.36498 20.7983 9.20423L19.7747 7.48605ZM19.9035 7.4511H13.4283V9.4511H19.9035V7.4511ZM15.6668 8.45382V31H17.6668V8.45382H15.6668Z" fill="url(#paint0_linear_58_1820)"/>
</g>
<defs>
<linearGradient id="paint0_linear_58_1820" x1="12.7553" y1="30.2503" x2="20.5789" y2="30.2503" gradientUnits="userSpaceOnUse">
<stop stop-color="#209F96"/>
<stop offset="1" stop-color="#2EE1D5"/>
</linearGradient>
<clipPath id="clip0_58_1820">
<rect width="32" height="32" fill="white" transform="translate(0.666504)"/>
</clipPath>
</defs>
</svg>
