<svg width="41" height="40" viewBox="0 0 41 40" fill="none" xmlns="http://www.w3.org/2000/svg">
<g clip-path="url(#clip0_58_1083)">
<path d="M33.6665 28.667V30.667C33.6665 31.7278 33.245 32.7453 32.4949 33.4954C31.7448 34.2455 30.7273 34.667 29.6665 34.667H9.6665C8.60564 34.667 7.58822 34.2455 6.83808 33.4954C6.08793 32.7453 5.6665 31.7278 5.6665 30.667V16.667C5.6665 15.6061 6.08793 14.5887 6.83808 13.8386C7.58822 13.0884 8.60564 12.667 9.6665 12.667H29.6665C30.7273 12.667 31.7448 13.0884 32.4949 13.8386C33.245 14.5887 33.6665 15.6061 33.6665 16.667V18.667" stroke="white" stroke-width="2" stroke-linecap="round" stroke-linejoin="round"/>
<path d="M29.6665 12.6654L26.5612 6.45469C26.4437 6.21966 26.2812 6.01007 26.0826 5.8379C25.8842 5.66573 25.6538 5.53435 25.4045 5.45127C25.1553 5.36818 24.8921 5.33502 24.63 5.35369C24.368 5.37234 24.1121 5.44246 23.8772 5.56002L9.6665 12.6654" stroke="white" stroke-width="2" stroke-linecap="round" stroke-linejoin="round"/>
<path d="M25.1309 20.1314L24.4238 19.4242L24.4237 19.4243L25.1309 20.1314ZM25.1309 27.2026L24.4237 27.9096L24.4238 27.9097L25.1309 27.2026ZM28.6665 23.167C28.9427 23.167 29.1665 23.3908 29.1665 23.667H27.1665C27.1665 24.4954 27.8381 25.167 28.6665 25.167V23.167ZM29.1665 23.667C29.1665 23.9431 28.9427 24.167 28.6665 24.167V22.167C27.8381 22.167 27.1665 22.8386 27.1665 23.667H29.1665ZM33.6665 29.667C34.462 29.667 35.2252 29.351 35.7879 28.7884L34.3737 27.3742C34.1862 27.5616 33.9318 27.667 33.6665 27.667V29.667ZM35.7879 28.7884C36.3506 28.2257 36.6665 27.4625 36.6665 26.667H34.6665C34.6665 26.9323 34.5611 27.1867 34.3737 27.3742L35.7879 28.7884ZM36.6665 26.667V20.667H34.6665V26.667H36.6665ZM36.6665 20.667C36.6665 19.8715 36.3506 19.1083 35.7879 18.5456L34.3737 19.9598C34.5611 20.1473 34.6665 20.4017 34.6665 20.667H36.6665ZM35.7879 18.5456C35.2252 17.9829 34.462 17.667 33.6665 17.667V19.667C33.9318 19.667 34.1862 19.7724 34.3737 19.9598L35.7879 18.5456ZM33.6665 17.667H28.6665V19.667H33.6665V17.667ZM28.6665 17.667C27.0751 17.667 25.5491 18.2992 24.4238 19.4242L25.838 20.8385C26.5882 20.0884 27.6056 19.667 28.6665 19.667V17.667ZM24.4237 19.4243C23.2987 20.5496 22.6665 22.0756 22.6665 23.667H24.6665C24.6665 22.6061 25.0879 21.5887 25.8381 20.8384L24.4237 19.4243ZM22.6665 23.667C22.6665 25.2584 23.2987 26.7844 24.4237 27.9096L25.8381 26.4955C25.0879 25.7453 24.6665 24.7279 24.6665 23.667H22.6665ZM24.4238 27.9097C25.5491 29.0348 27.0751 29.667 28.6665 29.667V27.667C27.6056 27.667 26.5882 27.2456 25.838 26.4954L24.4238 27.9097ZM28.6665 29.667H33.6665V27.667H28.6665V29.667ZM28.6665 25.167C29.4949 25.167 30.1665 24.4954 30.1665 23.667H28.1665C28.1665 23.3908 28.3904 23.167 28.6665 23.167V25.167ZM30.1665 23.667C30.1665 22.8386 29.4949 22.167 28.6665 22.167V24.167C28.3904 24.167 28.1665 23.9431 28.1665 23.667H30.1665Z" fill="white"/>
<path d="M25.1309 20.1314L24.4238 19.4242L24.4237 19.4243L25.1309 20.1314ZM25.1309 27.2026L24.4237 27.9096L24.4238 27.9097L25.1309 27.2026ZM28.6665 23.167C28.9427 23.167 29.1665 23.3908 29.1665 23.667H27.1665C27.1665 24.4954 27.8381 25.167 28.6665 25.167V23.167ZM29.1665 23.667C29.1665 23.9431 28.9427 24.167 28.6665 24.167V22.167C27.8381 22.167 27.1665 22.8386 27.1665 23.667H29.1665ZM33.6665 29.667C34.462 29.667 35.2252 29.351 35.7879 28.7884L34.3737 27.3742C34.1862 27.5616 33.9318 27.667 33.6665 27.667V29.667ZM35.7879 28.7884C36.3506 28.2257 36.6665 27.4625 36.6665 26.667H34.6665C34.6665 26.9323 34.5611 27.1867 34.3737 27.3742L35.7879 28.7884ZM36.6665 26.667V20.667H34.6665V26.667H36.6665ZM36.6665 20.667C36.6665 19.8715 36.3506 19.1083 35.7879 18.5456L34.3737 19.9598C34.5611 20.1473 34.6665 20.4017 34.6665 20.667H36.6665ZM35.7879 18.5456C35.2252 17.9829 34.462 17.667 33.6665 17.667V19.667C33.9318 19.667 34.1862 19.7724 34.3737 19.9598L35.7879 18.5456ZM33.6665 17.667H28.6665V19.667H33.6665V17.667ZM28.6665 17.667C27.0751 17.667 25.5491 18.2992 24.4238 19.4242L25.838 20.8385C26.5882 20.0884 27.6056 19.667 28.6665 19.667V17.667ZM24.4237 19.4243C23.2987 20.5496 22.6665 22.0756 22.6665 23.667H24.6665C24.6665 22.6061 25.0879 21.5887 25.8381 20.8384L24.4237 19.4243ZM22.6665 23.667C22.6665 25.2584 23.2987 26.7844 24.4237 27.9096L25.8381 26.4955C25.0879 25.7453 24.6665 24.7279 24.6665 23.667H22.6665ZM24.4238 27.9097C25.5491 29.0348 27.0751 29.667 28.6665 29.667V27.667C27.6056 27.667 26.5882 27.2456 25.838 26.4954L24.4238 27.9097ZM28.6665 29.667H33.6665V27.667H28.6665V29.667ZM28.6665 25.167C29.4949 25.167 30.1665 24.4954 30.1665 23.667H28.1665C28.1665 23.3908 28.3904 23.167 28.6665 23.167V25.167ZM30.1665 23.667C30.1665 22.8386 29.4949 22.167 28.6665 22.167V24.167C28.3904 24.167 28.1665 23.9431 28.1665 23.667H30.1665Z" fill="url(#paint0_linear_58_1083)"/>
</g>
<defs>
<linearGradient id="paint0_linear_58_1083" x1="23.7997" y1="28.4171" x2="35.5351" y2="28.4171" gradientUnits="userSpaceOnUse">
<stop stop-color="#209F96"/>
<stop offset="1" stop-color="#2EE1D5"/>
</linearGradient>
<clipPath id="clip0_58_1083">
<rect width="32" height="32" fill="white" transform="translate(4.6665 4)"/>
</clipPath>
</defs>
</svg>
