<svg width="60" height="56" viewBox="0 0 60 56" fill="none" xmlns="http://www.w3.org/2000/svg">
<path d="M58.506 5.0073H41.0384V0.824614C41.0384 0.416122 40.7092 0.0869141 40.3007 0.0869141H19.1384C18.7299 0.0869141 18.4006 0.416122 18.4006 0.824614V5.0073H0.93304C0.524549 5.0073 0.195312 5.3365 0.195312 5.745V54.953C0.195312 55.3615 0.524549 55.6907 0.93304 55.6907H58.506C58.9145 55.6907 59.2437 55.3615 59.2437 54.953V5.745C59.2437 5.3365 58.9145 5.0073 58.506 5.0073ZM19.8822 1.56231H39.5629V5.0073H19.8822V1.56231ZM10.0357 54.2153H1.67077V50.7703H10.0357V54.2153ZM47.9279 54.2153H11.5111V50.7703H47.9279V54.2153ZM57.7682 54.2153H49.4033V50.7703H57.7682V54.2153ZM57.7682 49.2949H1.67077V6.4827H57.7682V49.2949Z" fill="white"/>
<path d="M21.7603 10.4139H6.17669C5.7682 10.4139 5.43896 10.0847 5.43896 9.67618C5.43896 9.26768 5.7682 8.93848 6.17669 8.93848H21.7603C22.1688 8.93848 22.4981 9.26768 22.4981 9.67618C22.4981 10.0847 22.1688 10.4139 21.7603 10.4139Z" fill="white"/>
<path d="M14.8709 14.3553H6.17669C5.7682 14.3553 5.43896 14.0261 5.43896 13.6176C5.43896 13.2091 5.7682 12.8799 6.17669 12.8799H14.8709C15.2793 12.8799 15.6086 13.2091 15.6086 13.6176C15.6086 14.0261 15.2793 14.3553 14.8709 14.3553Z" fill="white"/>
<mask id="path-4-inside-1_2014_4296" fill="white">
<path d="M53.2688 43.5551H46.1964L42.4103 39.7323C44.1784 37.2143 45.2209 34.1473 45.2209 30.8367C45.2209 26.9347 43.7699 23.3619 41.3799 20.6366C41.4408 20.6062 41.4957 20.5637 41.5506 20.5149L45.1051 17.0092H52.1836C52.5921 17.0092 52.9213 16.68 52.9213 16.2715C52.9213 15.863 52.5921 15.5338 52.1836 15.5338H44.8002C44.6051 15.5338 44.4222 15.6067 44.282 15.7469L40.508 19.4661C40.4593 19.5088 40.4227 19.5636 40.3922 19.6185C37.612 16.9725 33.8502 15.3447 29.7165 15.3447C24.0769 15.3447 19.1262 18.3748 16.4131 22.8926L14.0597 20.661C13.9195 20.533 13.7427 20.4598 13.5537 20.4598H6.17034C5.76184 20.4598 5.43262 20.789 5.43262 21.1975C5.43262 21.606 5.76184 21.9355 6.17034 21.9355H13.2549L15.6937 24.2459C14.7487 26.2518 14.2182 28.4894 14.2182 30.8489C14.2182 39.3968 21.1748 46.3472 29.7165 46.3472C34.4233 46.3472 38.6485 44.2379 41.4896 40.9151L45.3551 44.823C45.4953 44.9632 45.6843 45.0427 45.8794 45.0427H53.2627C53.6712 45.0427 54.0004 44.7134 54.0004 44.305C54.0004 43.8965 53.6712 43.5673 53.2627 43.5673L53.2688 43.5551ZM30.4604 16.8323C37.6059 17.2042 43.3553 22.9535 43.7272 30.099H30.4604V16.8323ZM18.4068 39.1104C16.7058 36.7875 15.6998 33.9278 15.6998 30.8367C15.6998 23.3497 21.5955 17.2164 28.9849 16.8323V30.4893L18.4068 39.1163V39.1104ZM29.7226 44.8596C25.6133 44.8596 21.9064 43.0792 19.3396 40.2503L29.9848 31.5744H43.7272C43.3431 38.9639 37.2096 44.8596 29.7226 44.8596Z"/>
</mask>
<path d="M53.2688 43.5551L55.5049 44.6731L57.3139 41.0551H53.2688V43.5551ZM46.1964 43.5551L44.4202 45.3143L45.1538 46.0551H46.1964V43.5551ZM42.4103 39.7323L40.3643 38.2956L39.163 40.0064L40.634 41.4915L42.4103 39.7323ZM41.3799 20.6366L40.2618 18.4006L37.3643 19.8493L39.5003 22.285L41.3799 20.6366ZM41.5506 20.5149L43.2115 22.3834L43.2599 22.3403L43.3061 22.2948L41.5506 20.5149ZM45.1051 17.0092V14.5092H44.0796L43.3496 15.2292L45.1051 17.0092ZM44.282 15.7469L46.0368 17.5276L46.0433 17.5212L46.0498 17.5147L44.282 15.7469ZM40.508 19.4661L42.1543 21.3475L42.21 21.2987L42.2628 21.2467L40.508 19.4661ZM40.3922 19.6185L38.6686 21.4294L41.0087 23.6566L42.5776 20.8326L40.3922 19.6185ZM16.4131 22.8926L14.6929 24.7067L16.9529 26.8497L18.5563 24.1797L16.4131 22.8926ZM14.0597 20.661L15.7799 18.8469L15.7628 18.8307L15.7454 18.8148L14.0597 20.661ZM13.2549 21.9355L14.9743 20.1206L14.2511 19.4355H13.2549V21.9355ZM15.6937 24.2459L17.9553 25.3114L18.7262 23.6751L17.4131 22.4311L15.6937 24.2459ZM41.4896 40.9151L43.267 39.157L41.3558 37.2247L39.5895 39.2904L41.4896 40.9151ZM45.3551 44.823L43.5776 46.5811L43.5873 46.5907L45.3551 44.823ZM53.2627 43.5673L51.0267 42.4492L49.2176 46.0673H53.2627V43.5673ZM30.4604 16.8323L30.5903 14.3357L27.9604 14.1988V16.8323H30.4604ZM43.7272 30.099V32.599H46.3607L46.2238 29.9691L43.7272 30.099ZM30.4604 30.099H27.9604V32.599H30.4604V30.099ZM18.4068 39.1104H20.9068V38.2929L20.4238 37.6334L18.4068 39.1104ZM28.9849 16.8323H31.4849V14.199L28.8551 14.3357L28.9849 16.8323ZM28.9849 30.4893L30.5649 32.4267L31.4849 31.6764V30.4893H28.9849ZM18.4068 39.1163H15.9068V44.3812L19.9868 41.0537L18.4068 39.1163ZM19.3396 40.2503L17.7602 38.3124L15.7167 39.9778L17.4881 41.9302L19.3396 40.2503ZM29.9848 31.5744V29.0744H29.0951L28.4054 29.6365L29.9848 31.5744ZM43.7272 31.5744L46.2238 31.7042L46.3605 29.0744H43.7272V31.5744ZM53.2688 41.0551H46.1964V46.0551H53.2688V41.0551ZM47.9727 41.7958L44.1865 37.973L40.634 41.4915L44.4202 45.3143L47.9727 41.7958ZM44.4562 41.1689C46.5086 38.2461 47.7209 34.6806 47.7209 30.8367H42.7209C42.7209 33.614 41.8481 36.1825 40.3643 38.2956L44.4562 41.1689ZM47.7209 30.8367C47.7209 26.3039 46.0331 22.151 43.2595 18.9883L39.5003 22.285C41.5066 24.5729 42.7209 27.5655 42.7209 30.8367H47.7209ZM42.4979 22.8727C42.8448 22.6993 43.0897 22.4917 43.2115 22.3834L39.8897 18.6464C39.9017 18.6356 40.0369 18.513 40.2618 18.4006L42.4979 22.8727ZM43.3061 22.2948L46.8606 18.7891L43.3496 15.2292L39.7951 18.7349L43.3061 22.2948ZM45.1051 19.5092H52.1836V14.5092H45.1051V19.5092ZM52.1836 19.5092C53.9726 19.5092 55.4213 18.0608 55.4213 16.2715H50.4213C50.4213 15.2991 51.2115 14.5092 52.1836 14.5092V19.5092ZM55.4213 16.2715C55.4213 14.4821 53.9726 13.0338 52.1836 13.0338V18.0338C51.2115 18.0338 50.4213 17.2438 50.4213 16.2715H55.4213ZM52.1836 13.0338H44.8002V18.0338H52.1836V13.0338ZM44.8002 13.0338C43.9613 13.0338 43.1367 13.3567 42.5142 13.9792L46.0498 17.5147C45.7077 17.8567 45.2489 18.0338 44.8002 18.0338V13.0338ZM42.5272 13.9663L38.7532 17.6854L42.2628 21.2467L46.0368 17.5276L42.5272 13.9663ZM38.8618 17.5846C38.4955 17.9051 38.2927 18.2498 38.2068 18.4044L42.5776 20.8326C42.5527 20.8775 42.423 21.1124 42.1543 21.3475L38.8618 17.5846ZM42.1157 17.8076C38.891 14.7384 34.5192 12.8447 29.7165 12.8447V17.8447C33.1812 17.8447 36.333 19.2065 38.6686 21.4294L42.1157 17.8076ZM29.7165 12.8447C23.1604 12.8447 17.4146 16.369 14.2699 21.6055L18.5563 24.1797C20.8378 20.3806 24.9935 17.8447 29.7165 17.8447V12.8447ZM18.1333 21.0785L15.7799 18.8469L12.3395 22.4752L14.6929 24.7067L18.1333 21.0785ZM15.7454 18.8148C15.1772 18.296 14.4093 17.9598 13.5537 17.9598V22.9598C13.076 22.9598 12.6618 22.77 12.374 22.5073L15.7454 18.8148ZM13.5537 17.9598H6.17034V22.9598H13.5537V17.9598ZM6.17034 17.9598C4.38121 17.9598 2.93262 19.4082 2.93262 21.1975H7.93262C7.93262 22.1698 7.14247 22.9598 6.17034 22.9598V17.9598ZM2.93262 21.1975C2.93262 22.9855 4.3799 24.4355 6.17034 24.4355V19.4355C7.14379 19.4355 7.93262 20.2265 7.93262 21.1975H2.93262ZM6.17034 24.4355H13.2549V19.4355H6.17034V24.4355ZM11.5355 23.7504L13.9743 26.0608L17.4131 22.4311L14.9743 20.1206L11.5355 23.7504ZM13.4321 23.1805C12.3344 25.5103 11.7182 28.1109 11.7182 30.8489H16.7182C16.7182 28.8679 17.1629 26.9933 17.9553 25.3114L13.4321 23.1805ZM11.7182 30.8489C11.7182 40.7781 19.7947 48.8472 29.7165 48.8472V43.8472C22.5548 43.8472 16.7182 38.0154 16.7182 30.8489H11.7182ZM29.7165 48.8472C35.1862 48.8472 40.0948 46.3932 43.3897 42.5397L39.5895 39.2904C37.2021 42.0825 33.6604 43.8472 29.7165 43.8472V48.8472ZM39.7122 42.6731L43.5777 46.581L47.1325 43.0649L43.267 39.157L39.7122 42.6731ZM43.5873 46.5907C44.185 47.1884 45.0054 47.5427 45.8794 47.5427V42.5427C46.3632 42.5427 46.8055 42.7379 47.1228 43.0552L43.5873 46.5907ZM45.8794 47.5427H53.2627V42.5427H45.8794V47.5427ZM53.2627 47.5427C55.0518 47.5427 56.5004 46.0942 56.5004 44.305H51.5004C51.5004 43.3327 52.2906 42.5427 53.2627 42.5427V47.5427ZM56.5004 44.305C56.5004 42.5157 55.0518 41.0673 53.2627 41.0673V46.0673C52.2906 46.0673 51.5004 45.2773 51.5004 44.305H56.5004ZM55.4988 44.6853L55.5049 44.6731L51.0328 42.437L51.0267 42.4492L55.4988 44.6853ZM30.3304 19.329C36.1975 19.6343 40.9252 24.3619 41.2306 30.229L46.2238 29.9691C45.7854 21.545 39.0143 14.7742 30.5903 14.3357L30.3304 19.329ZM43.7272 27.599H30.4604V32.599H43.7272V27.599ZM32.9604 30.099V16.8323H27.9604V30.099H32.9604ZM20.4238 37.6334C19.0243 35.7222 18.1998 33.3763 18.1998 30.8367H13.1998C13.1998 34.4794 14.3872 37.8527 16.3898 40.5874L20.4238 37.6334ZM18.1998 30.8367C18.1998 24.6875 23.0462 19.6444 29.1147 19.329L28.8551 14.3357C20.1447 14.7885 13.1998 22.012 13.1998 30.8367H18.1998ZM26.4849 16.8323V30.4893H31.4849V16.8323H26.4849ZM27.4049 28.5519L16.8268 37.179L19.9868 41.0537L30.5649 32.4267L27.4049 28.5519ZM20.9068 39.1163V39.1104H15.9068V39.1163H20.9068ZM29.7226 42.3596C26.3502 42.3596 23.3057 40.901 21.1911 38.5704L17.4881 41.9302C20.5071 45.2575 24.8764 47.3596 29.7226 47.3596V42.3596ZM20.919 42.1882L31.5642 33.5123L28.4054 29.6365L17.7602 38.3124L20.919 42.1882ZM29.9848 34.0744H43.7272V29.0744H29.9848V34.0744ZM41.2306 31.4446C40.9151 37.5131 35.8719 42.3596 29.7226 42.3596V47.3596C38.5474 47.3596 45.771 40.4146 46.2238 31.7042L41.2306 31.4446Z" fill="url(#paint0_linear_2014_4296)" mask="url(#path-4-inside-1_2014_4296)"/>
<defs>
<linearGradient id="paint0_linear_2014_4296" x1="5.97183" y1="45.5724" x2="53.4686" y2="45.5724" gradientUnits="userSpaceOnUse">
<stop stop-color="#209F96"/>
<stop offset="1" stop-color="#2EE1D5"/>
</linearGradient>
</defs>
</svg>
