<svg width="47" height="57" viewBox="0 0 47 57" fill="none" xmlns="http://www.w3.org/2000/svg">
<g clip-path="url(#clip0_2014_4317)">
<path d="M3.75863 0.879883H30.485C32.528 0.879883 34.1968 2.3615 34.1968 4.12385V32.1031C34.987 31.8951 35.8188 31.9367 36.5622 32.2278L44.958 35.5966C45.8886 35.9657 46.4916 36.787 46.4916 37.6916V46.7737C46.4916 52.3207 41.3866 56.8799 35.1222 56.8799C31.2232 56.8799 27.7453 55.1123 25.7022 52.4402H3.75863C1.71556 52.4402 0 50.9638 0 49.1963V4.12385C0 2.3615 1.71556 0.879883 3.75863 0.879883ZM3.75863 2.3615C2.59933 2.3615 1.66877 3.1413 1.66877 4.12905V49.2015C1.66877 50.1892 2.59933 50.969 3.75863 50.969H24.8236C24.127 49.6953 23.7579 48.2969 23.7579 46.7789V46.1602H7.83958C5.52098 46.1602 3.66506 44.559 3.66506 42.5472V10.8249C3.66506 8.81304 5.52098 7.17027 7.83958 7.17027H26.3988C28.6706 7.17027 30.5733 8.81304 30.5733 10.8249V33.4651L32.5696 32.7269V4.12385C32.5696 3.1361 31.5975 2.3563 30.4798 2.3563H3.75863V2.3615ZM27.0538 3.78074H27.2774C27.6361 3.78074 28.0416 4.11345 28.0416 4.48775C28.0416 4.90365 27.6361 5.19477 27.2774 5.19477H27.0538C26.6016 5.19477 26.2429 4.90365 26.2429 4.48775C26.2429 4.11345 26.6016 3.78074 27.0538 3.78074ZM12.0713 3.96269H21.7096C22.1775 3.96269 22.505 4.27461 22.505 4.66971C22.505 5.06481 22.1775 5.37673 21.7096 5.37673H12.0713C11.6502 5.37673 11.2759 5.06481 11.2759 4.66971C11.2759 4.27461 11.6502 3.96269 12.0713 3.96269ZM7.83958 8.6051C6.39955 8.6051 5.28704 9.59284 5.28704 10.8249V42.542C5.28704 43.7325 6.39955 44.7202 7.83958 44.7202H23.7527V37.6136C23.7527 36.7507 24.309 35.9709 25.1927 35.6433L28.9514 34.1253V10.8249C28.9514 9.59284 27.7921 8.6051 26.3988 8.6051H7.83958ZM17.0724 18.2902C21.5381 18.2902 25.1719 21.4354 25.1719 25.3656C25.1719 29.2958 21.5433 32.3994 17.0724 32.3994C12.6016 32.3994 9.01968 29.2126 9.01968 25.3656C9.01968 21.5186 12.6483 18.2902 17.0724 18.2902ZM17.0724 19.777C13.5373 19.777 10.6521 22.2568 10.6521 25.3604C10.6521 28.464 13.5373 30.9022 17.0724 30.9022C20.6075 30.9022 23.5395 28.4224 23.5395 25.3604C23.5395 22.2984 20.6543 19.777 17.0724 19.777ZM17.1296 20.1045C17.5975 20.1045 18.0186 20.4321 18.0186 20.8479V21.6277C19.0011 21.8357 19.7497 22.5739 19.7965 23.5201C19.8433 23.8892 19.469 24.2635 19.0011 24.2635C18.58 24.3051 18.1589 23.9775 18.1589 23.5616C18.1121 23.2757 17.8314 23.0678 17.5039 23.0678H16.8489C16.5214 23.0678 16.2406 23.3173 16.2406 23.6448V24.0971C16.2406 24.383 16.5214 24.6742 16.8489 24.6742H17.5507C18.7672 24.6742 19.7965 25.5371 19.7965 26.6497V27.471C19.7965 28.4588 19.0011 29.2386 18.0186 29.4465V30.0236C18.0186 30.4343 17.5975 30.7618 17.1296 30.7618C16.7085 30.7618 16.3342 30.4343 16.3342 30.0236V29.4049C15.3517 29.2386 14.603 28.4588 14.5563 27.5958V27.3879C14.5563 26.9772 14.8838 26.6497 15.3517 26.6497C15.8195 26.6081 16.1938 26.9356 16.2406 27.3515V27.5178C16.2406 27.8038 16.5214 28.0533 16.8489 28.0533H17.5039C17.8314 28.0533 18.1589 27.809 18.1589 27.4762V26.6549C18.1589 26.3689 17.8314 26.1194 17.5039 26.1194H16.8489C15.5856 26.0778 14.5563 25.1732 14.5563 24.1023V23.65C14.5563 22.6623 15.3049 21.8825 16.3342 21.6745V20.8531C16.3342 20.4424 16.7085 20.1097 17.1296 20.1097V20.1045ZM35.1222 33.4599C34.8414 33.4599 34.6127 33.4599 34.4255 33.5847L25.8426 36.9534C25.5618 37.0782 25.4267 37.3225 25.4267 37.6084V46.7685C25.4267 51.5357 29.7416 55.3983 35.1222 55.3983C40.5028 55.3983 44.8177 51.5357 44.8177 46.7685V37.6864C44.8177 37.3589 44.6305 37.0314 44.2614 36.9066L35.8188 33.5795C35.6316 33.4547 35.3561 33.4547 35.1222 33.4547V33.4599ZM35.2625 38.0607C39.1979 38.0607 42.3899 40.894 42.3899 44.3875C42.3899 47.881 39.1979 50.7143 35.2625 50.7143C31.3271 50.7143 28.0884 47.881 28.0884 44.3875C28.0884 40.894 31.3271 38.0607 35.2625 38.0607ZM35.2625 39.5371C32.2057 39.5371 29.752 41.6738 29.752 44.3875C29.752 47.1012 32.2057 49.2742 35.2625 49.2742C38.3194 49.2742 40.7263 47.0544 40.7263 44.3875C40.7263 41.7206 38.2726 39.5371 35.2625 39.5371ZM38.179 42.1521C38.5065 41.8713 39.0212 41.8713 39.3487 42.1521C39.723 42.4328 39.723 42.8799 39.3955 43.1658L35.4653 46.6021C35.1378 46.9244 34.6231 47.0856 34.1084 47.0856H33.9681C33.4066 47.0856 32.9387 46.8413 32.5644 46.4358L31.4415 45.2609C31.1608 44.9386 31.2544 44.4915 31.5819 44.2471C31.9562 44.0028 32.4709 44.0444 32.7516 44.3667L33.8277 45.578C33.9213 45.6196 34.0149 45.6612 34.1084 45.6612C34.1084 45.6612 34.2488 45.6612 34.2956 45.578L38.179 42.1365V42.1521ZM14.6342 47.673H18.3253C18.8452 47.673 19.2247 48.0474 19.2247 48.4684C19.2247 48.9311 18.8452 49.2638 18.3253 49.2638H14.6342C14.1144 49.2638 13.7349 48.9311 13.7349 48.4684C13.7349 48.0474 14.1144 47.673 14.6342 47.673Z" fill="white"/>
<path fill-rule="evenodd" clip-rule="evenodd" d="M35.2677 38.0535C39.203 38.0535 42.395 40.8867 42.395 44.3802C42.395 47.8737 39.203 50.707 35.2677 50.707C31.3323 50.707 28.0935 47.8737 28.0935 44.3802C28.0935 40.8867 31.3323 38.0535 35.2677 38.0535ZM29.7571 44.3802C29.7571 41.6665 32.2108 39.5299 35.2677 39.5299C38.2777 39.5299 40.7314 41.7133 40.7314 44.3802C40.7314 47.0471 38.3245 49.267 35.2677 49.267C32.2108 49.267 29.7571 47.0939 29.7571 44.3802Z" fill="url(#paint0_linear_2014_4317)"/>
<path fill-rule="evenodd" clip-rule="evenodd" d="M34.2019 32.0958C34.9921 31.8878 35.8239 31.9294 36.5673 32.2206L44.9632 35.5893C45.8937 35.9584 46.4968 36.7798 46.4968 37.6843V46.7664C46.4968 52.3134 41.3917 56.8726 35.1273 56.8726C31.2283 56.8726 27.7504 55.1051 25.7073 52.433L24.8287 50.9617C24.1321 49.6881 23.763 48.2896 23.763 46.7716V46.153L23.7578 44.7129V37.6064C23.7578 36.7434 24.3141 35.9636 25.1978 35.6361L28.9565 34.1181L30.5785 33.4578L32.5747 32.7196L34.2019 32.0958ZM39.3538 42.1448C39.0263 41.8641 38.5116 41.8641 38.1841 42.1448V42.1292L34.3007 45.5707C34.2539 45.6539 34.1136 45.6539 34.1136 45.6539C34.02 45.6539 33.9264 45.6123 33.8328 45.5707L32.7567 44.3594C32.476 44.0371 31.9613 43.9955 31.587 44.2399C31.2595 44.4842 31.1659 44.9313 31.4466 45.2536L32.5695 46.4285C32.9439 46.834 33.4117 47.0783 33.9732 47.0783H34.1136C34.6282 47.0783 35.1429 46.9172 35.4704 46.5949L39.4006 43.1585C39.7281 42.8726 39.7281 42.4255 39.3538 42.1448ZM34.4307 33.5774C34.6178 33.4526 34.8466 33.4526 35.1273 33.4526V33.4474C35.3612 33.4474 35.6368 33.4474 35.8239 33.5722L44.2665 36.8994C44.6356 37.0241 44.8228 37.3516 44.8228 37.6792V46.7612C44.8228 51.5284 40.5079 55.391 35.1273 55.391C29.7467 55.391 25.4318 51.5284 25.4318 46.7612V37.6012C25.4318 37.3152 25.5669 37.0709 25.8477 36.9461L34.4307 33.5774Z" fill="url(#paint1_linear_2014_4317)"/>
</g>
<defs>
<linearGradient id="paint0_linear_2014_4317" x1="24.0103" y1="56.2502" x2="46.2478" y2="56.2502" gradientUnits="userSpaceOnUse">
<stop stop-color="#209F96"/>
<stop offset="1" stop-color="#2EE1D5"/>
</linearGradient>
<linearGradient id="paint1_linear_2014_4317" x1="24.0103" y1="56.2502" x2="46.2478" y2="56.2502" gradientUnits="userSpaceOnUse">
<stop stop-color="#209F96"/>
<stop offset="1" stop-color="#2EE1D5"/>
</linearGradient>
<clipPath id="clip0_2014_4317">
<rect width="46.4916" height="56" fill="white" transform="translate(0 0.879883)"/>
</clipPath>
</defs>
</svg>
