<svg width="50" height="57" viewBox="0 0 50 57" fill="none" xmlns="http://www.w3.org/2000/svg">
<path d="M1.37887 29.5076H20.4265C20.5812 29.5076 20.7285 29.644 20.7285 29.8203V55.4897C20.7285 55.6684 20.5841 55.8021 20.4265 55.8021H1.37887C1.22392 55.8021 1.07692 55.6657 1.07692 55.4897V29.8203C1.07692 29.6413 1.22159 29.5076 1.37887 29.5076ZM12.106 38.7572H9.70468C9.03682 38.7572 8.47216 39.1482 8.20533 39.7032C7.95068 39.1176 7.37 38.6996 6.67952 38.6996H4.27823C3.34611 38.6996 2.6141 39.4614 2.6141 40.3689V42.7966C2.6141 43.4939 3.04641 44.1053 3.66961 44.351C3.04641 44.5967 2.6141 45.2081 2.6141 45.9055V48.3331C2.6141 48.979 2.98493 49.5511 3.53479 49.8273C2.98493 50.1035 2.6141 50.6756 2.6141 51.3215V53.7489C2.6141 54.6558 3.34552 55.4185 4.27823 55.4185H6.67952C7.34738 55.4185 7.91204 55.0274 8.17886 54.4724C8.43352 55.058 9.0142 55.4761 9.70468 55.4761H12.106C12.7942 55.4761 13.3734 55.0607 13.6293 54.4781C13.8972 55.0301 14.4603 55.4185 15.1259 55.4185H17.5272C18.4599 55.4185 19.1913 54.6558 19.1913 53.7489V48.4222V48.3698V48.3331V45.9055C19.1913 45.2081 18.759 44.5967 18.1358 44.351C18.759 44.1053 19.1913 43.4939 19.1913 42.7966V40.3689C19.1913 39.4614 18.4593 38.6996 17.5272 38.6996H15.1259C14.4377 38.6996 13.8585 39.1149 13.6026 39.6976C13.3346 39.1455 12.7715 38.7572 12.106 38.7572ZM7.28814 44.351C7.68118 44.196 7.99829 43.8956 8.17892 43.5199C8.34421 43.9 8.6468 44.2094 9.02758 44.3798C8.6567 44.5458 8.36001 44.8437 8.1921 45.2102C8.01398 44.8214 7.69093 44.5098 7.28814 44.351ZM13.6159 45.2045C13.4476 44.8406 13.152 44.5449 12.7831 44.3798C13.1619 44.2102 13.4634 43.903 13.6292 43.5256C13.8103 43.8987 14.1262 44.1968 14.5173 44.351C14.1165 44.509 13.7946 44.8183 13.6159 45.2045ZM12.789 49.8561C13.0606 49.7333 13.292 49.5397 13.4618 49.3002V50.412C13.292 50.1726 13.0606 49.9789 12.789 49.8561ZM8.1921 49.0284C8.35911 49.393 8.65352 49.6896 9.02161 49.8561C8.66302 50.0183 8.37435 50.304 8.20528 50.6557C8.04971 50.298 7.77251 50.0029 7.42296 49.8273C7.76284 49.6566 8.03432 49.3728 8.1921 49.0284ZM18.6229 30.4053H3.19294C2.10149 30.4053 1.21946 31.2949 1.21946 32.3839V35.5455C1.21946 36.6252 2.09744 37.5241 3.19294 37.5241H18.6229C19.7144 37.5241 20.5964 36.6345 20.5964 35.5455V32.3839C20.5964 31.2949 19.7144 30.4053 18.6229 30.4053Z" stroke="url(#paint0_linear_2014_4309)" stroke-width="2.15385"/>
<path fill-rule="evenodd" clip-rule="evenodd" d="M40.9051 0.879883H16.2317C14.7113 0.879883 13.3324 1.50386 12.331 2.51575C11.3296 3.52763 10.7109 4.91689 10.7109 6.45308V25.6894H13.1646V6.45308C13.1646 5.60372 13.5107 4.82781 14.0664 4.26681C14.6222 3.70581 15.3876 3.35979 16.2317 3.35979H40.2602L40.2392 4.08863V8.51877C40.2392 9.71416 40.7268 10.8048 41.508 11.5964C42.2945 12.3829 43.3693 12.8757 44.5594 12.8757H46.7667L46.8926 13.0488V43.6099C46.8926 44.4593 46.5465 45.2352 45.9907 45.7962C45.435 46.3572 44.6695 46.7086 43.8254 46.7086H24.5261V49.1831H43.8254C45.3459 49.1831 46.7248 48.5594 47.7262 47.5475C48.7276 46.5356 49.3463 45.1461 49.3463 43.6099V12.645L49.0946 11.906L41.2773 1.37807L40.9051 0.879883ZM40.2025 23.6501H19.8494C19.6082 23.6501 19.3933 23.7496 19.236 23.9069C19.0787 24.0642 18.9791 24.2845 18.9791 24.5256C18.9791 24.7668 19.0787 24.9871 19.236 25.1444C19.3933 25.3017 19.6082 25.4012 19.8494 25.4012H40.2025C40.4437 25.4012 40.6587 25.3017 40.816 25.1444C40.9732 24.9871 41.0729 24.7668 41.0729 24.5256C41.0729 24.2845 40.9732 24.0642 40.816 23.9069C40.6587 23.7496 40.4437 23.6501 40.2025 23.6501ZM40.2025 38.1993H24.5261V39.9504H40.2025C40.4437 39.9504 40.6587 39.8509 40.816 39.6936C40.9732 39.5363 41.0729 39.316 41.0729 39.0748C41.0729 38.8337 40.9732 38.6134 40.816 38.4561C40.6587 38.2988 40.4437 38.1993 40.2025 38.1993ZM40.2025 33.3496H24.5261V35.1006H40.2025C40.4437 35.1006 40.6587 35.0012 40.816 34.8439C40.9732 34.6866 41.0729 34.4663 41.0729 34.2251C41.0729 33.9839 40.9732 33.7636 40.816 33.6063C40.6587 33.4491 40.4437 33.3496 40.2025 33.3496ZM24.313 28.4998H24.3112V28.4945L24.313 28.4998ZM40.2025 28.4998H24.313C24.4533 28.9177 24.5261 29.3617 24.5261 29.8211V30.2509H40.2025C40.4437 30.2509 40.6587 30.1514 40.816 29.9941C40.9732 29.8368 41.0729 29.6166 41.0729 29.3754C41.0729 29.1342 40.9732 28.9139 40.816 28.7566C40.6587 28.5993 40.4437 28.4998 40.2025 28.4998ZM29.4387 15.4081V18.9315V18.9366C29.1347 18.7898 28.8568 18.5538 28.6051 18.2287C28.3587 17.8984 28.1909 17.5105 28.1123 17.0596L25.947 17.3166C26.1095 18.4176 26.487 19.267 27.0899 19.87C27.6929 20.4729 28.4793 20.8347 29.444 20.95V22.4809H30.6551V20.9132C31.7404 20.7559 32.5898 20.3314 33.1979 19.6393C33.8061 18.942 34.1102 18.0873 34.1102 17.0754C34.1102 16.1684 33.8691 15.4238 33.3815 14.8418C32.8991 14.2598 31.9868 13.7881 30.6499 13.4264V10.1231C31.1951 10.3591 31.5307 10.8048 31.6565 11.4654L33.7694 11.1876C33.6331 10.354 33.2976 9.68272 32.7733 9.18464C32.249 8.68656 31.5412 8.38247 30.6499 8.27762V7.44944H29.4387V8.27762C28.4845 8.37199 27.7191 8.73378 27.1476 9.35769C26.5761 9.98161 26.2877 10.7576 26.2877 11.6699C26.2877 12.5822 26.5394 13.3529 27.048 13.9873C27.5565 14.6217 28.3482 15.0935 29.4387 15.4081ZM28.6576 10.6684C28.8515 10.401 29.1137 10.2071 29.4387 10.097V13.0068C29.077 12.8495 28.8096 12.6452 28.6313 12.3883C28.4531 12.1314 28.3639 11.8587 28.3639 11.5598C28.3639 11.2348 28.4636 10.9358 28.6576 10.6684ZM31.667 18.4648C31.4049 18.7793 31.0641 18.9734 30.6446 19.052V19.0467V15.7647C31.1479 15.9115 31.5097 16.1211 31.7299 16.3937C31.9501 16.6663 32.0602 16.9862 32.0602 17.3637C32.0602 17.7884 31.9291 18.1502 31.667 18.4648Z" fill="white"/>
<defs>
<linearGradient id="paint0_linear_2014_4309" x1="0.242088" y1="56.1681" x2="21.5666" y2="56.1681" gradientUnits="userSpaceOnUse">
<stop stop-color="#209F96"/>
<stop offset="1" stop-color="#2EE1D5"/>
</linearGradient>
</defs>
</svg>
