<svg width="56" height="56" viewBox="0 0 56 56" fill="none" xmlns="http://www.w3.org/2000/svg">
<path d="M2.33691 11.232C2.33691 13.6041 4.57488 15.879 8.55849 17.5563C12.5421 19.2336 17.945 20.1759 23.5787 20.1759C29.2124 20.1759 34.6153 19.2336 38.5989 17.5563C42.5825 15.879 44.8205 13.6041 44.8205 11.232C44.8205 10.0575 44.271 8.89443 43.2035 7.80931C42.136 6.72418 40.5714 5.73821 38.5989 4.9077C36.6264 4.07718 34.2847 3.41837 31.7076 2.9689C29.1304 2.51943 26.3682 2.28809 23.5787 2.28809C20.7892 2.28809 18.027 2.51943 15.4498 2.9689C12.8726 3.41837 10.531 4.07718 8.55849 4.9077C6.58601 5.73821 5.02135 6.72418 3.95385 7.80931C2.88635 8.89443 2.33691 10.0575 2.33691 11.232Z" stroke="white" stroke-width="1.93" stroke-linecap="round" stroke-linejoin="round"/>
<path d="M25.8127 29.071C25.0748 29.1045 24.3325 29.1202 23.5767 29.1202C11.8468 29.1202 2.33496 25.1178 2.33496 20.1763" stroke="white" stroke-width="1.93" stroke-linecap="round" stroke-linejoin="round"/>
<path d="M25.8127 39.133C25.0748 39.1665 24.3325 39.1822 23.5767 39.1822C11.8468 39.1822 2.33496 35.1798 2.33496 30.2383" stroke="white" stroke-width="1.93" stroke-linecap="round" stroke-linejoin="round"/>
<path d="M44.8184 21.2943V11.2324" stroke="white" stroke-width="1.93" stroke-linecap="round" stroke-linejoin="round"/>
<path d="M2.33496 11.23V40.2977C2.33496 45.2392 11.8468 49.2416 23.5767 49.2416C24.3325 49.2416 25.0793 49.2259 25.8127 49.1924" stroke="white" stroke-width="1.93" stroke-linecap="round" stroke-linejoin="round"/>
<path d="M53.7605 51.4776C53.7605 52.0706 53.5249 52.6393 53.1056 53.0587C52.6863 53.478 52.1176 53.7136 51.5245 53.7136H35.8727C35.2797 53.7136 34.7109 53.478 34.2916 53.0587C33.8723 52.6393 33.6367 52.0706 33.6367 51.4776V38.0617C33.6367 37.4687 33.8723 36.9 34.2916 36.4806C34.7109 36.0613 35.2797 35.8257 35.8727 35.8257H51.5245C52.1176 35.8257 52.6863 36.0613 53.1056 36.4806C53.5249 36.9 53.7605 37.4687 53.7605 38.0617V51.4776Z" stroke="url(#paint0_linear_2252_14196)" stroke-width="1.93" stroke-linecap="round" stroke-linejoin="round"/>
<path d="M40.9036 44.9128C40.9036 45.654 41.1981 46.3649 41.7223 46.8891C42.2464 47.4133 42.9573 47.7077 43.6986 47.7077C44.4399 47.7077 45.1508 47.4133 45.675 46.8891C46.1991 46.3649 46.4936 45.654 46.4936 44.9128C46.4936 44.1715 46.1991 43.4606 45.675 42.9364C45.1508 42.4123 44.4399 42.1178 43.6986 42.1178C42.9573 42.1178 42.2464 42.4123 41.7223 42.9364C41.1981 43.4606 40.9036 44.1715 40.9036 44.9128Z" stroke="url(#paint1_linear_2252_14196)" stroke-width="1.93" stroke-linecap="round" stroke-linejoin="round"/>
<path d="M49.2886 32.4718C49.2886 31.7377 49.144 31.0108 48.863 30.3326C48.5821 29.6544 48.1704 29.0382 47.6513 28.5191C47.1322 28 46.516 27.5883 45.8378 27.3073C45.1596 27.0264 44.4327 26.8818 43.6986 26.8818C42.9645 26.8818 42.2376 27.0264 41.5594 27.3073C40.8812 27.5883 40.265 28 39.7459 28.5191C39.2269 29.0382 38.8151 29.6544 38.5342 30.3326C38.2533 31.0108 38.1087 31.7377 38.1087 32.4718V35.8257H49.2886V32.4718Z" stroke="url(#paint2_linear_2252_14196)" stroke-width="1.93" stroke-linecap="round" stroke-linejoin="round"/>
<defs>
<linearGradient id="paint0_linear_2252_14196" x1="33.8601" y1="53.043" x2="53.5401" y2="53.043" gradientUnits="userSpaceOnUse">
<stop stop-color="#209F96"/>
<stop offset="1" stop-color="#2EE1D5"/>
</linearGradient>
<linearGradient id="paint1_linear_2252_14196" x1="33.8601" y1="53.043" x2="53.5401" y2="53.043" gradientUnits="userSpaceOnUse">
<stop stop-color="#209F96"/>
<stop offset="1" stop-color="#2EE1D5"/>
</linearGradient>
<linearGradient id="paint2_linear_2252_14196" x1="33.8601" y1="53.043" x2="53.5401" y2="53.043" gradientUnits="userSpaceOnUse">
<stop stop-color="#209F96"/>
<stop offset="1" stop-color="#2EE1D5"/>
</linearGradient>
</defs>
</svg>
