<svg width="50" height="54" viewBox="0 0 50 54" fill="none" xmlns="http://www.w3.org/2000/svg">
<path d="M1.52051 8.59793V25.6808C1.58514 31.3244 3.38308 36.8116 6.67074 41.3991C9.95839 45.9867 14.5768 49.4526 19.9002 51.3275L22.4045 52.2442C24.0771 52.87 25.9195 52.87 27.592 52.2442L30.0963 51.3275C35.4197 49.4526 40.0382 45.9867 43.3258 41.3991C46.6135 36.8116 48.4114 31.3244 48.476 25.6808V8.59793C48.4728 7.93014 48.2741 7.2779 47.9046 6.72164C47.5351 6.16539 47.0109 5.72944 46.3966 5.46757C39.6212 2.63695 32.3408 1.21434 24.9983 1.28629C17.6557 1.21434 10.3753 2.63695 3.59997 5.46757C2.98565 5.72944 2.46142 6.16539 2.0919 6.72164C1.72239 7.2779 1.52376 7.93014 1.52051 8.59793Z" stroke="white" stroke-width="1.93103" stroke-linecap="round" stroke-linejoin="round"/>
<path d="M17.1703 19.1744H32.8221C32.8221 19.1744 35.0581 19.1744 35.0581 21.4104V34.8262C35.0581 34.8262 35.0581 37.0622 32.8221 37.0622H17.1703C17.1703 37.0622 14.9343 37.0622 14.9343 34.8262V21.4104C14.9343 21.4104 14.9343 19.1744 17.1703 19.1744Z" stroke="url(#paint0_linear_2252_14180)" stroke-width="1.93103" stroke-linecap="round" stroke-linejoin="round"/>
<path d="M22.2013 28.1183C22.2013 28.8596 22.4957 29.5705 23.0199 30.0946C23.544 30.6188 24.255 30.9133 24.9962 30.9133C25.7375 30.9133 26.4484 30.6188 26.9726 30.0946C27.4967 29.5705 27.7912 28.8596 27.7912 28.1183C27.7912 27.377 27.4967 26.6661 26.9726 26.1419C26.4484 25.6178 25.7375 25.3233 24.9962 25.3233C24.255 25.3233 23.544 25.6178 23.0199 26.1419C22.4957 26.6661 22.2013 27.377 22.2013 28.1183Z" stroke="url(#paint1_linear_2252_14180)" stroke-width="1.93103" stroke-linecap="round" stroke-linejoin="round"/>
<path d="M30.5862 15.8204C30.5862 14.3379 29.9972 12.916 28.9489 11.8677C27.9006 10.8194 26.4788 10.2305 24.9962 10.2305C23.5137 10.2305 22.0919 10.8194 21.0435 11.8677C19.9952 12.916 19.4063 14.3379 19.4063 15.8204V19.1744H30.5862V15.8204Z" stroke="url(#paint2_linear_2252_14180)" stroke-width="1.93103" stroke-linecap="round" stroke-linejoin="round"/>
<defs>
<linearGradient id="paint0_linear_2252_14180" x1="15.1577" y1="36.3917" x2="34.8378" y2="36.3917" gradientUnits="userSpaceOnUse">
<stop stop-color="#209F96"/>
<stop offset="1" stop-color="#2EE1D5"/>
</linearGradient>
<linearGradient id="paint1_linear_2252_14180" x1="15.1577" y1="36.3917" x2="34.8378" y2="36.3917" gradientUnits="userSpaceOnUse">
<stop stop-color="#209F96"/>
<stop offset="1" stop-color="#2EE1D5"/>
</linearGradient>
<linearGradient id="paint2_linear_2252_14180" x1="15.1577" y1="36.3917" x2="34.8378" y2="36.3917" gradientUnits="userSpaceOnUse">
<stop stop-color="#209F96"/>
<stop offset="1" stop-color="#2EE1D5"/>
</linearGradient>
</defs>
</svg>
