<svg width="56" height="56" viewBox="0 0 56 56" fill="none" xmlns="http://www.w3.org/2000/svg">
<path d="M15.168 19.8332V13.9998C15.168 10.5962 16.52 7.33201 18.9268 4.92529C21.3335 2.51858 24.5977 1.1665 28.0013 1.1665C31.4049 1.1665 34.669 2.51858 37.0759 4.92529C39.4825 7.33201 40.8346 10.5962 40.8346 13.9998V19.8332" stroke="white" stroke-width="1.93103" stroke-linecap="round" stroke-linejoin="round"/>
<path d="M5.83496 31.4997H50.1683M5.83496 43.1664H50.1683M12.251 26.2497C11.9288 26.2497 11.6677 25.9886 11.6677 25.6664C11.6677 25.3441 11.9288 25.083 12.251 25.083C12.5732 25.083 12.8346 25.3441 12.8346 25.6663C12.8346 25.9886 12.5732 26.2497 12.251 26.2497ZM18.0846 26.2498C17.7625 26.2498 17.5013 25.9887 17.5013 25.6664C17.5013 25.3442 17.7625 25.0831 18.0846 25.0831C18.4068 25.0831 18.6683 25.3441 18.6683 25.6663C18.6683 25.9885 18.4068 26.2498 18.0846 26.2498ZM12.251 37.9164C11.9288 37.9164 11.6677 37.6553 11.6677 37.3331C11.6677 37.0109 11.9288 36.7498 12.251 36.7498C12.5732 36.7498 12.8346 37.0108 12.8346 37.333C12.8346 37.6552 12.5732 37.9164 12.251 37.9164ZM18.085 37.9164C18.4071 37.9164 18.6683 37.6553 18.6683 37.3331C18.6683 37.0109 18.4071 36.7498 18.085 36.7498C17.7628 36.7498 17.5013 37.0108 17.5013 37.333C17.5013 37.6552 17.7628 37.9164 18.085 37.9164ZM12.2519 49.5831C11.9298 49.5831 11.6686 49.322 11.6686 48.9998C11.6686 48.6776 11.9298 48.4165 12.2519 48.4165C12.5741 48.4165 12.8356 48.6775 12.8356 48.9997C12.8356 49.3219 12.5741 49.5831 12.2519 49.5831ZM18.0846 49.5831C17.7625 49.5831 17.5013 49.322 17.5013 48.9998C17.5013 48.6775 17.7625 48.4164 18.0846 48.4164C18.4068 48.4164 18.6683 48.6776 18.6683 48.9998C18.6683 49.322 18.4068 49.5831 18.0846 49.5831ZM44.335 19.833H11.6683C8.44664 19.833 5.83496 22.4447 5.83496 25.6663V48.9997C5.83496 52.2213 8.44664 54.833 11.6683 54.833H44.335C47.5566 54.833 50.1683 52.2213 50.1683 48.9997V25.6663C50.1683 22.4447 47.5566 19.833 44.335 19.833Z" stroke="url(#paint0_linear_2252_14207)" stroke-width="1.93103"/>
<defs>
<linearGradient id="paint0_linear_2252_14207" x1="6.32716" y1="53.9583" x2="49.6828" y2="53.9584" gradientUnits="userSpaceOnUse">
<stop stop-color="#209F96"/>
<stop offset="1" stop-color="#2EE1D5"/>
</linearGradient>
</defs>
</svg>
