<svg width="31" height="31" viewBox="0 0 31 31" fill="none" xmlns="http://www.w3.org/2000/svg">
<path d="M9.213 6.57059C9.21267 7.23363 8.94978 7.86938 8.48216 8.33799C8.01454 8.80659 7.38049 9.06967 6.71951 9.06934C6.05853 9.069 5.42475 8.80529 4.9576 8.33622C4.49044 7.86714 4.22819 7.23113 4.22852 6.56809C4.22885 5.90504 4.49174 5.26929 4.95936 4.80069C5.42698 4.33208 6.06102 4.069 6.722 4.06934C7.38299 4.06967 8.01677 4.33338 8.48392 4.80245C8.95107 5.27153 9.21333 5.90754 9.213 6.57059ZM9.28777 10.9206H4.30328V26.5706H9.28777V10.9206ZM17.1632 10.9206H12.2037V26.5706H17.1134V18.3581C17.1134 13.7831 23.0574 13.3581 23.0574 18.3581V26.5706H27.9796V16.6581C27.9796 8.94559 19.182 9.23309 17.1134 13.0206L17.1632 10.9206Z" fill="white"/>
</svg>
