<svg width="26" height="26" viewBox="0 0 26 26" fill="none" xmlns="http://www.w3.org/2000/svg">
<path d="M7.85299 0.823242H18.3204C22.308 0.823242 25.5479 4.07324 25.5479 8.07324V18.5732C25.5479 20.4961 24.7864 22.3401 23.431 23.6998C22.0756 25.0594 20.2373 25.8232 18.3204 25.8232H7.85299C3.8654 25.8232 0.625488 22.5732 0.625488 18.5732V8.07324C0.625488 6.15042 1.38695 4.30636 2.74237 2.94672C4.09779 1.58708 5.93614 0.823242 7.85299 0.823242ZM7.60376 3.32324C6.41399 3.32324 5.27295 3.79735 4.43166 4.64126C3.59036 5.48517 3.11773 6.62977 3.11773 7.82324V18.8232C3.11773 21.3107 5.12398 23.3232 7.60376 23.3232H18.5696C19.7594 23.3232 20.9004 22.8491 21.7417 22.0052C22.583 21.1613 23.0557 20.0167 23.0557 18.8232V7.82324C23.0557 5.33574 21.0494 3.32324 18.5696 3.32324H7.60376ZM19.6288 5.19824C20.0419 5.19824 20.4381 5.36286 20.7303 5.65589C21.0224 5.94891 21.1865 6.34634 21.1865 6.76074C21.1865 7.17514 21.0224 7.57257 20.7303 7.8656C20.4381 8.15862 20.0419 8.32324 19.6288 8.32324C19.2157 8.32324 18.8195 8.15862 18.5274 7.8656C18.2353 7.57257 18.0712 7.17514 18.0712 6.76074C18.0712 6.34634 18.2353 5.94891 18.5274 5.65589C18.8195 5.36286 19.2157 5.19824 19.6288 5.19824ZM13.0867 7.07324C14.7392 7.07324 16.3239 7.73172 17.4924 8.90382C18.6609 10.0759 19.3173 11.6656 19.3173 13.3232C19.3173 14.9808 18.6609 16.5706 17.4924 17.7427C16.3239 18.9148 14.7392 19.5732 13.0867 19.5732C11.4342 19.5732 9.84946 18.9148 8.68099 17.7427C7.51253 16.5706 6.85609 14.9808 6.85609 13.3232C6.85609 11.6656 7.51253 10.0759 8.68099 8.90382C9.84946 7.73172 11.4342 7.07324 13.0867 7.07324ZM13.0867 9.57324C12.0952 9.57324 11.1444 9.96833 10.4433 10.6716C9.74219 11.3749 9.34833 12.3287 9.34833 13.3232C9.34833 14.3178 9.74219 15.2716 10.4433 15.9749C11.1444 16.6782 12.0952 17.0732 13.0867 17.0732C14.0782 17.0732 15.029 16.6782 15.7301 15.9749C16.4312 15.2716 16.8251 14.3178 16.8251 13.3232C16.8251 12.3287 16.4312 11.3749 15.7301 10.6716C15.029 9.96833 14.0782 9.57324 13.0867 9.57324Z" fill="white"/>
</svg>
