<svg width="40" height="40" viewBox="0 0 40 40" fill="none" xmlns="http://www.w3.org/2000/svg">
<g clip-path="url(#clip0_58_1279)">
<path d="M32.1914 8.55241V9.39241V8.55241ZM34.8581 14.5844H35.6981H34.8581ZM26.3434 17.2511V16.4111H26.3434L26.3434 17.2511ZM30.1053 5.12012C30.1053 4.6562 29.7292 4.28012 29.2653 4.28012C28.8014 4.28012 28.4253 4.6562 28.4253 5.12012H30.1053ZM28.4253 8.55101C28.4253 9.01493 28.8014 9.39101 29.2653 9.39101C29.7292 9.39101 30.1053 9.01493 30.1053 8.55101H28.4253ZM28.0584 12.4118C28.0584 11.9479 27.6823 11.5718 27.2184 11.5718C26.7545 11.5718 26.3784 11.9479 26.3784 12.4118H28.0584ZM26.3784 13.3976C26.3784 13.8615 26.7545 14.2376 27.2184 14.2376C27.6823 14.2376 28.0584 13.8615 28.0584 13.3976H26.3784ZM32.1522 12.4118C32.1522 11.9479 31.7761 11.5718 31.3122 11.5718C30.8483 11.5718 30.4722 11.9479 30.4722 12.4118H32.1522ZM30.4722 13.3976C30.4722 13.8615 30.8483 14.2376 31.3122 14.2376C31.7761 14.2376 32.1522 13.8615 32.1522 13.3976H30.4722ZM26.3434 9.39241H32.1914V7.71241H26.3434V9.39241ZM32.1914 8.55241C32.1914 9.39241 32.191 9.39241 32.1906 9.39241C32.1905 9.39241 32.1901 9.39241 32.1899 9.39241C32.1894 9.39241 32.189 9.39241 32.1886 9.3924C32.1878 9.3924 32.1872 9.3924 32.1867 9.39239C32.1857 9.39239 32.1853 9.39238 32.1855 9.39238C32.1859 9.39239 32.1886 9.39243 32.1934 9.39259C32.203 9.39291 32.221 9.39369 32.2462 9.39548C32.2967 9.3991 32.3745 9.40673 32.47 9.42265C32.665 9.45514 32.9121 9.51857 33.1491 9.63706C33.3828 9.7539 33.5909 9.91597 33.7425 10.1434C33.8906 10.3655 34.0181 10.6994 34.0181 11.2191H35.6981C35.6981 10.4054 35.4923 9.73934 35.1403 9.21146C34.7919 8.68884 34.3334 8.35091 33.9004 8.13442C33.4707 7.91958 33.0512 7.81634 32.7462 7.7655C32.5917 7.73976 32.4611 7.72656 32.3659 7.71975C32.3181 7.71634 32.2788 7.71451 32.2494 7.71353C32.2346 7.71304 32.2223 7.71276 32.2126 7.7126C32.2078 7.71252 32.2036 7.71247 32.2 7.71245C32.1983 7.71243 32.1967 7.71242 32.1952 7.71242C32.1945 7.71241 32.1938 7.71241 32.1932 7.71241C32.1929 7.71241 32.1924 7.71241 32.1923 7.71241C32.1918 7.71241 32.1914 7.71241 32.1914 8.55241ZM34.0181 11.2191V14.5844H35.6981V11.2191H34.0181ZM34.8581 14.5844C34.0181 14.5844 34.0181 14.584 34.0181 14.5836C34.0181 14.5835 34.0181 14.5831 34.0181 14.5829C34.0181 14.5824 34.0181 14.582 34.0181 14.5816C34.0181 14.5808 34.0181 14.5802 34.0181 14.5797C34.0181 14.5787 34.0181 14.5783 34.0181 14.5785C34.0181 14.5789 34.0181 14.5816 34.0179 14.5864C34.0176 14.596 34.0168 14.614 34.015 14.6391C34.0114 14.6897 34.0038 14.7675 33.9879 14.863C33.9554 15.058 33.8919 15.3051 33.7734 15.5421C33.6566 15.7758 33.4945 15.9839 33.2671 16.1355C33.045 16.2836 32.7111 16.4111 32.1914 16.4111V18.0911C33.0051 18.0911 33.6712 17.8852 34.199 17.5333C34.7217 17.1849 35.0596 16.7264 35.2761 16.2934C35.4909 15.8637 35.5942 15.4442 35.645 15.1392C35.6707 14.9847 35.6839 14.8541 35.6907 14.7588C35.6942 14.7111 35.696 14.6718 35.697 14.6423C35.6975 14.6276 35.6977 14.6153 35.6979 14.6056C35.698 14.6008 35.698 14.5965 35.6981 14.593C35.6981 14.5912 35.6981 14.5896 35.6981 14.5882C35.6981 14.5875 35.6981 14.5868 35.6981 14.5862C35.6981 14.5859 35.6981 14.5854 35.6981 14.5853C35.6981 14.5848 35.6981 14.5844 34.8581 14.5844ZM32.1914 16.4111H26.3434V18.0911H32.1914V16.4111ZM26.3434 17.2511C26.3434 16.4111 26.3438 16.4111 26.3442 16.4111C26.3443 16.4111 26.3447 16.4111 26.3449 16.4111C26.3454 16.4111 26.3459 16.4111 26.3462 16.4111C26.347 16.4111 26.3477 16.4111 26.3482 16.4111C26.3491 16.4111 26.3495 16.4111 26.3493 16.4111C26.3489 16.4111 26.3463 16.4111 26.3415 16.4109C26.3318 16.4106 26.3138 16.4098 26.2887 16.408C26.2381 16.4044 26.1604 16.3968 26.0649 16.3808C25.8699 16.3483 25.6227 16.2849 25.3858 16.1664C25.1521 16.0496 24.9439 15.8875 24.7923 15.6601C24.6443 15.438 24.5168 15.1041 24.5168 14.5844H22.8368C22.8368 15.3981 23.0426 16.0641 23.3945 16.592C23.7429 17.1146 24.2014 17.4526 24.6344 17.6691C25.0641 17.8839 25.4836 17.9871 25.7887 18.038C25.9432 18.0637 26.0737 18.0769 26.169 18.0837C26.2168 18.0871 26.2561 18.089 26.2855 18.09C26.3002 18.0904 26.3125 18.0907 26.3222 18.0909C26.3271 18.091 26.3313 18.091 26.3348 18.091C26.3366 18.0911 26.3382 18.0911 26.3396 18.0911C26.3403 18.0911 26.341 18.0911 26.3417 18.0911C26.342 18.0911 26.3424 18.0911 26.3426 18.0911C26.343 18.0911 26.3434 18.0911 26.3434 17.2511ZM24.5168 14.5844V11.2191H22.8368V14.5844H24.5168ZM23.6768 11.2191C24.5168 11.2191 24.5168 11.2195 24.5168 11.2199C24.5168 11.22 24.5168 11.2204 24.5168 11.2206C24.5168 11.2211 24.5168 11.2215 24.5168 11.2219C24.5167 11.2227 24.5167 11.2233 24.5167 11.2238C24.5167 11.2248 24.5167 11.2252 24.5167 11.225C24.5167 11.2246 24.5168 11.2219 24.5169 11.2171C24.5173 11.2075 24.518 11.1895 24.5198 11.1643C24.5234 11.1138 24.5311 11.036 24.547 10.9405C24.5795 10.7455 24.6429 10.4984 24.7614 10.2614C24.8783 10.0277 25.0403 9.81959 25.2677 9.668C25.4898 9.51992 25.8237 9.39241 26.3434 9.39241V7.71241C25.5298 7.71241 24.8637 7.91824 24.3358 8.27015C23.8132 8.61857 23.4753 9.0771 23.2588 9.51008C23.0439 9.93978 22.9407 10.3593 22.8899 10.6643C22.8641 10.8188 22.8509 10.9494 22.8441 11.0446C22.8407 11.0924 22.8389 11.1317 22.8379 11.1611C22.8374 11.1759 22.8371 11.1882 22.8369 11.1979C22.8369 11.2027 22.8368 11.2069 22.8368 11.2105C22.8368 11.2122 22.8368 11.2138 22.8368 11.2153C22.8368 11.216 22.8368 11.2167 22.8368 11.2173C22.8368 11.2176 22.8368 11.2181 22.8368 11.2182C22.8368 11.2187 22.8368 11.2191 23.6768 11.2191ZM28.4253 5.12012V8.55101H30.1053V5.12012H28.4253ZM26.3784 12.4118V13.3976H28.0584V12.4118H26.3784ZM30.4722 12.4118V13.3976H32.1522V12.4118H30.4722Z" fill="url(#paint0_linear_58_1279)"/>
<path d="M11.7325 28.1678C17.1586 33.594 22.9151 36.657 26.1084 33.4636C29.2943 30.2778 26.2552 24.5301 20.8127 19.0877C15.3702 13.6452 9.61377 10.5822 6.4204 13.7755C3.23459 16.9614 6.27361 22.709 11.7161 28.1514L11.7325 28.1678Z" stroke="white" stroke-width="1.68" stroke-linecap="round" stroke-linejoin="round"/>
<path d="M19.7176 13.2139C17.215 14.2629 14.4364 16.3733 11.733 19.0767L11.7166 19.0931C6.29053 24.5191 3.22755 30.2757 6.42092 33.469C9.60672 36.6549 15.3544 33.6158 20.7968 28.1733C23.3459 25.6243 25.3728 23.0065 26.4796 20.6153" stroke="white" stroke-width="1.68" stroke-linecap="round" stroke-linejoin="round"/>
</g>
<defs>
<linearGradient id="paint0_linear_58_1279" x1="23.8009" y1="16.9479" x2="34.7357" y2="16.9479" gradientUnits="userSpaceOnUse">
<stop stop-color="#209F96"/>
<stop offset="1" stop-color="#2EE1D5"/>
</linearGradient>
<clipPath id="clip0_58_1279">
<rect width="32" height="32" fill="white" transform="translate(3.99951 4)"/>
</clipPath>
</defs>
</svg>
